<mxfile host="www.draw.io" modified="2020-03-06T08:41:40.622Z" agent="Mozilla/5.0 (Macintosh; Intel Mac OS X 10_14_6) AppleWebKit/537.36 (KHTML, like Gecko) Chrome/80.0.3987.122 Safari/537.36" etag="uoCtN9HShmV8Nc_NevdQ" version="12.8.1" type="github">
  <diagram id="GG9u6aIBvdDvP1Iufii3" name="Page-1">
    <mxGraphModel dx="2141" dy="686" grid="1" gridSize="10" guides="1" tooltips="1" connect="1" arrows="1" fold="1" page="1" pageScale="1" pageWidth="827" pageHeight="1169" math="0" shadow="0">
      <root>
        <mxCell id="0" />
        <mxCell id="1" parent="0" />
        <mxCell id="TI-A_ci46_vRr4jzdu6c-19" style="edgeStyle=orthogonalEdgeStyle;rounded=0;orthogonalLoop=1;jettySize=auto;html=1;exitX=0.5;exitY=1;exitDx=0;exitDy=0;entryX=0.5;entryY=0;entryDx=0;entryDy=0;entryPerimeter=0;" edge="1" parent="1" source="TI-A_ci46_vRr4jzdu6c-6" target="TI-A_ci46_vRr4jzdu6c-7">
          <mxGeometry relative="1" as="geometry" />
        </mxCell>
        <mxCell id="TI-A_ci46_vRr4jzdu6c-21" style="edgeStyle=orthogonalEdgeStyle;curved=1;rounded=0;orthogonalLoop=1;jettySize=auto;html=1;exitX=1;exitY=0.5;exitDx=0;exitDy=0;entryX=1;entryY=0.5;entryDx=0;entryDy=0;entryPerimeter=0;" edge="1" parent="1" source="TI-A_ci46_vRr4jzdu6c-6" target="TI-A_ci46_vRr4jzdu6c-7">
          <mxGeometry relative="1" as="geometry">
            <Array as="points">
              <mxPoint x="300" y="320" />
              <mxPoint x="300" y="680" />
            </Array>
          </mxGeometry>
        </mxCell>
        <mxCell id="TI-A_ci46_vRr4jzdu6c-22" style="edgeStyle=orthogonalEdgeStyle;curved=1;rounded=0;orthogonalLoop=1;jettySize=auto;html=1;exitX=0;exitY=0.5;exitDx=0;exitDy=0;entryX=0;entryY=0.5;entryDx=0;entryDy=0;entryPerimeter=0;" edge="1" parent="1" source="TI-A_ci46_vRr4jzdu6c-6" target="TI-A_ci46_vRr4jzdu6c-7">
          <mxGeometry relative="1" as="geometry">
            <Array as="points">
              <mxPoint x="-10" y="320" />
              <mxPoint x="-10" y="680" />
            </Array>
          </mxGeometry>
        </mxCell>
        <mxCell id="TI-A_ci46_vRr4jzdu6c-6" value="&lt;span style=&quot;white-space: normal&quot;&gt;&lt;font style=&quot;font-size: 12px&quot;&gt;创建变更&lt;/font&gt;&lt;/span&gt;" style="shape=process;whiteSpace=wrap;html=1;backgroundOutline=1;" vertex="1" parent="1">
          <mxGeometry x="85" y="290" width="120" height="60" as="geometry" />
        </mxCell>
        <mxCell id="TI-A_ci46_vRr4jzdu6c-23" style="rounded=0;orthogonalLoop=1;jettySize=auto;html=1;exitX=1;exitY=0.5;exitDx=0;exitDy=0;exitPerimeter=0;" edge="1" parent="1" source="TI-A_ci46_vRr4jzdu6c-7" target="TI-A_ci46_vRr4jzdu6c-8">
          <mxGeometry relative="1" as="geometry" />
        </mxCell>
        <mxCell id="TI-A_ci46_vRr4jzdu6c-7" value="灰度分批" style="strokeWidth=2;html=1;shape=mxgraph.flowchart.multi-document;whiteSpace=wrap;" vertex="1" parent="1">
          <mxGeometry x="101" y="650" width="88" height="60" as="geometry" />
        </mxCell>
        <mxCell id="TI-A_ci46_vRr4jzdu6c-8" value="" style="shape=mxgraph.bpmn.service_task;html=1;outlineConnect=0;" vertex="1" parent="1">
          <mxGeometry x="369" y="650" width="70" height="60" as="geometry" />
        </mxCell>
        <mxCell id="TI-A_ci46_vRr4jzdu6c-24" style="edgeStyle=none;rounded=0;orthogonalLoop=1;jettySize=auto;html=1;entryX=0;entryY=0.5;entryDx=0;entryDy=0;" edge="1" parent="1" source="TI-A_ci46_vRr4jzdu6c-8" target="TI-A_ci46_vRr4jzdu6c-9">
          <mxGeometry relative="1" as="geometry">
            <mxPoint x="520" y="620" as="targetPoint" />
          </mxGeometry>
        </mxCell>
        <mxCell id="TI-A_ci46_vRr4jzdu6c-46" style="edgeStyle=orthogonalEdgeStyle;curved=1;rounded=0;orthogonalLoop=1;jettySize=auto;html=1;exitX=1;exitY=0.5;exitDx=0;exitDy=0;entryX=0;entryY=0.5;entryDx=0;entryDy=0;" edge="1" parent="1" source="TI-A_ci46_vRr4jzdu6c-9" target="TI-A_ci46_vRr4jzdu6c-45">
          <mxGeometry relative="1" as="geometry" />
        </mxCell>
        <mxCell id="TI-A_ci46_vRr4jzdu6c-9" value="" style="shape=mxgraph.bpmn.shape;html=1;verticalLabelPosition=bottom;labelBackgroundColor=#ffffff;verticalAlign=top;align=center;perimeter=ellipsePerimeter;outlineConnect=0;outline=eventInt;symbol=compensation;" vertex="1" parent="1">
          <mxGeometry x="600" y="655" width="50" height="50" as="geometry" />
        </mxCell>
        <mxCell id="TI-A_ci46_vRr4jzdu6c-39" style="edgeStyle=orthogonalEdgeStyle;rounded=0;orthogonalLoop=1;jettySize=auto;html=1;exitX=0;exitY=0.5;exitDx=0;exitDy=0;entryX=0.5;entryY=0;entryDx=0;entryDy=0;curved=1;" edge="1" parent="1" source="TI-A_ci46_vRr4jzdu6c-10" target="TI-A_ci46_vRr4jzdu6c-15">
          <mxGeometry relative="1" as="geometry" />
        </mxCell>
        <mxCell id="TI-A_ci46_vRr4jzdu6c-40" style="edgeStyle=orthogonalEdgeStyle;rounded=0;orthogonalLoop=1;jettySize=auto;html=1;exitX=1;exitY=0.5;exitDx=0;exitDy=0;entryX=0.5;entryY=0;entryDx=0;entryDy=0;curved=1;" edge="1" parent="1" source="TI-A_ci46_vRr4jzdu6c-10" target="TI-A_ci46_vRr4jzdu6c-16">
          <mxGeometry relative="1" as="geometry" />
        </mxCell>
        <mxCell id="TI-A_ci46_vRr4jzdu6c-10" value="发现故障" style="shape=process;whiteSpace=wrap;html=1;backgroundOutline=1;" vertex="1" parent="1">
          <mxGeometry x="620" y="290" width="120" height="60" as="geometry" />
        </mxCell>
        <mxCell id="TI-A_ci46_vRr4jzdu6c-15" value="变更搜索" style="label;whiteSpace=wrap;html=1;align=center;verticalAlign=bottom;spacingLeft=0;spacingBottom=4;imageAlign=center;imageVerticalAlign=top;image=img/clipart/Gear_128x128.png" vertex="1" parent="1">
          <mxGeometry x="500" y="450" width="120" height="80" as="geometry" />
        </mxCell>
        <mxCell id="TI-A_ci46_vRr4jzdu6c-16" value="故障定位" style="label;whiteSpace=wrap;html=1;align=center;verticalAlign=bottom;spacingLeft=0;spacingBottom=4;imageAlign=center;imageVerticalAlign=top;image=img/clipart/Gear_128x128.png" vertex="1" parent="1">
          <mxGeometry x="740" y="450" width="120" height="80" as="geometry" />
        </mxCell>
        <mxCell id="TI-A_ci46_vRr4jzdu6c-25" value="变更前置检查" style="text;html=1;align=center;verticalAlign=middle;resizable=0;points=[];autosize=1;" vertex="1" parent="1">
          <mxGeometry x="390" y="630" width="90" height="20" as="geometry" />
        </mxCell>
        <mxCell id="TI-A_ci46_vRr4jzdu6c-26" value="变更后置检查" style="text;html=1;align=center;verticalAlign=middle;resizable=0;points=[];autosize=1;" vertex="1" parent="1">
          <mxGeometry x="599" y="635" width="90" height="20" as="geometry" />
        </mxCell>
        <mxCell id="TI-A_ci46_vRr4jzdu6c-27" value="获取变更影响面数据：&lt;br&gt;判定是否是高危变更" style="text;html=1;" vertex="1" parent="1">
          <mxGeometry x="300" y="490" width="130" height="30" as="geometry" />
        </mxCell>
        <mxCell id="TI-A_ci46_vRr4jzdu6c-28" value="&lt;div style=&quot;text-align: left&quot;&gt;获取变更影响面数据：&lt;/div&gt;判定是否会影响&lt;br&gt;p1p2服务" style="text;html=1;align=center;" vertex="1" parent="1">
          <mxGeometry x="120" y="460" width="170" height="30" as="geometry" />
        </mxCell>
        <mxCell id="TI-A_ci46_vRr4jzdu6c-29" value="获取变更影响面数据：&lt;br&gt;可能受影响的业务owner&lt;br&gt;&lt;div style=&quot;text-align: center&quot;&gt;&lt;span&gt;发送邮件或钉钉提醒&lt;/span&gt;&lt;/div&gt;" style="text;html=1;" vertex="1" parent="1">
          <mxGeometry x="-10" y="490" width="230" height="30" as="geometry" />
        </mxCell>
        <mxCell id="TI-A_ci46_vRr4jzdu6c-36" value="获取元数据基础信息：&lt;br&gt;用于执行分批规则进行灰度分批" style="text;html=1;align=center;verticalAlign=middle;resizable=0;points=[];autosize=1;fillColor=#80FF00;" vertex="1" parent="1">
          <mxGeometry x="95" y="714" width="180" height="30" as="geometry" />
        </mxCell>
        <mxCell id="TI-A_ci46_vRr4jzdu6c-38" value="获取变更影响面数据：&lt;br&gt;执行防御规则，拦截异常变更" style="text;html=1;align=center;verticalAlign=middle;resizable=0;points=[];autosize=1;fillColor=#80FF00;" vertex="1" parent="1">
          <mxGeometry x="555" y="708" width="170" height="30" as="geometry" />
        </mxCell>
        <mxCell id="TI-A_ci46_vRr4jzdu6c-41" value="获取元数据基础信息，展示变更实体列表" style="text;html=1;align=center;verticalAlign=middle;resizable=0;points=[];autosize=1;fillColor=#80FF00;" vertex="1" parent="1">
          <mxGeometry x="205" y="299" width="230" height="20" as="geometry" />
        </mxCell>
        <mxCell id="TI-A_ci46_vRr4jzdu6c-43" value="获取变更影响面数据：&lt;br&gt;通过故障的变更实体，&lt;br&gt;反向搜索近期可能影响到这个实体的变更记录" style="text;html=1;align=center;verticalAlign=middle;resizable=0;points=[];autosize=1;fillColor=#80FF00;" vertex="1" parent="1">
          <mxGeometry x="425" y="535" width="260" height="50" as="geometry" />
        </mxCell>
        <mxCell id="TI-A_ci46_vRr4jzdu6c-44" value="获取实体间关联关系数据：&lt;br&gt;通过关联关系，定位可能的故障根因" style="text;html=1;align=center;verticalAlign=middle;resizable=0;points=[];autosize=1;" vertex="1" parent="1">
          <mxGeometry x="705" y="531" width="210" height="30" as="geometry" />
        </mxCell>
        <mxCell id="TI-A_ci46_vRr4jzdu6c-45" value="" style="shape=sumEllipse;perimeter=ellipsePerimeter;whiteSpace=wrap;html=1;backgroundOutline=1;fillColor=none;" vertex="1" parent="1">
          <mxGeometry x="780" y="650" width="60" height="60" as="geometry" />
        </mxCell>
      </root>
    </mxGraphModel>
  </diagram>
</mxfile>
